# xmcd
#
# Track frame offsets:
#	150
#	19650
#	43495
#	61395
#	79035
#	101645
#	121652
#	147127
#	164912
#	183435
#
# Disc length: 2705 seconds
#
# Revision: 4
# Processed by: cddbd v1.5.2PL0 Copyright (c) Steve Scherf et al.
# Submitted via: EasyCDDAExtractor 12.0.1.1
#
DISCID=880a8f0a
DTITLE=Rocio Jurado - Sevilla
DYEAR=1991
DGENRE=Latin
TTITLE0=Sevilla
TTITLE1=El Amor Acaba
TTITLE2=Alguien
TTITLE3=Frente A Frente
TTITLE4=Viva El Pasodoble
TTITLE5=Por Si Volvieras
TTITLE6=Todo Se Derrumbo Dentro De Mi
TTITLE7=Los Dos Estamos Queriendo
TTITLE8=Toda La Noche Oliendo A Ti
TTITLE9=El Grito De America
EXTD=
EXTT0=
EXTT1=
EXTT2=
EXTT3=
EXTT4=
EXTT5=
EXTT6=
EXTT7=
EXTT8=
EXTT9=
PLAYORDER=
